inDegrees=no
num_controls=7
num_derivatives=13
num_iterations=133
num_multipliers=7
num_parameters=0
num_slacks=7
num_states=26
objective=5.620731
objective_accelerations=0.606816
objective_balance=0.104060
objective_effort=0.444395
objective_height=4.362911
objective_ligament=0.102548
solver_duration=1618.977747
status=Solve_Succeeded
success=true
DataType=double
version=3
OpenSimVersion=4.4-2022-07-23-0e9fedc
endheader
time	/jointset/ground_pelvis/pelvis_tilt/value	/jointset/ground_pelvis/pelvis_tx/value	/jointset/ground_pelvis/pelvis_ty/value	/jointset/hip_l/hip_flexion_l/value	/jointset/hip_l/hip_adduction_l/value	/jointset/hip_l/hip_rotation_l/value	/jointset/back/lumbar_extension/value	/jointset/patellofemoral_l/patellar_flexion_l/value	/jointset/knee_l/knee_flexion_l/value	/jointset/knee_l/knee_adduction_l/value	/jointset/knee_l/knee_rotation_l/value	/jointset/ankle_l/ankle_angle_l/value	/jointset/subtalar_l/subtalar_angle_l/value	/jointset/ground_pelvis/pelvis_tilt/speed	/jointset/ground_pelvis/pelvis_tx/speed	/jointset/ground_pelvis/pelvis_ty/speed	/jointset/hip_l/hip_flexion_l/speed	/jointset/hip_l/hip_adduction_l/speed	/jointset/hip_l/hip_rotation_l/speed	/jointset/back/lumbar_extension/speed	/jointset/patellofemoral_l/patellar_flexion_l/speed	/jointset/knee_l/knee_flexion_l/speed	/jointset/knee_l/knee_adduction_l/speed	/jointset/knee_l/knee_rotation_l/speed	/jointset/ankle_l/ankle_angle_l/speed	/jointset/subtalar_l/subtalar_angle_l/speed	/forceset/tau_hip_flexion_l	/forceset/tau_hip_adduction_l	/forceset/tau_hip_rotation_l	/forceset/tau_knee_flexion_l	/forceset/tau_ankle_angle_l	/forceset/tau_subtalar_angle_l	/forceset/tau_lumbar_extension	lambda_cid13_p0	lambda_cid13_p1	lambda_cid13_p2	lambda_cid13_p3	lambda_cid13_p4	lambda_cid13_p5	lambda_cid14_p0	/jointset/ground_pelvis/pelvis_tilt/accel	/jointset/ground_pelvis/pelvis_tx/accel	/jointset/ground_pelvis/pelvis_ty/accel	/jointset/hip_l/hip_flexion_l/accel	/jointset/hip_l/hip_adduction_l/accel	/jointset/hip_l/hip_rotation_l/accel	/jointset/back/lumbar_extension/accel	/jointset/patellofemoral_l/patellar_flexion_l/accel	/jointset/knee_l/knee_flexion_l/accel	/jointset/knee_l/knee_adduction_l/accel	/jointset/knee_l/knee_rotation_l/accel	/jointset/ankle_l/ankle_angle_l/accel	/jointset/subtalar_l/subtalar_angle_l/accel	gamma_cid13_p0	gamma_cid13_p1	gamma_cid13_p2	gamma_cid13_p3	gamma_cid13_p4	gamma_cid13_p5	gamma_cid14_p0
1.5	-0.4646570105330103	-0.07221681848694503	0.7644628744280532	1.270610854765669	-0.3091973213753951	-0.05232122947982582	-0.3444550859017921	0.6730498325582791	0.6730498325582265	-0.1722932029717588	0.1743897725919699	0.03221085595062558	-0.049287754261926	0.7801244817570726	0.2607253238321778	0.4792136327016301	-2.345633084645218	0.0377687895674664	-0.5940465729937077	0.5651355307449772	-1.703758029274088	-1.703758029274163	0.007589098290695348	-0.0002273589934109123	-0.2276928201297997	0.01278186812662945	-0.2592191697599942	0.0242021524028414	-0.01948450085235652	-0.186168726863925	0.1266270649509271	0.04294132448391295	0.2300931895819751	1.77744163476805	-21.70698290767422	6.195258375841918	-4.02613010387549	-610.5379927249804	-56.7797232544994	-29.21940584511769	0.6286607535663606	0.6573199858810103	-0.2768123227218284	-1.534141905833531	0.5484157999366457	-0.2814987777125598	1.731218816615496	-1.062997791898821	-1.062997791898816	0.001243237453060456	-0.01676629621742894	-0.1000827928095235	0.5305772181806047	2.028777176766348e-07	8.307520810395415e-07	-1.041350264824756e-06	-5.667402257086142e-09	2.926316183962428e-07	3.278722600045204e-09	2.614080606406754e-07
1.51	-0.4568247116352559	-0.06957688745323032	0.7692402721441016	1.247079957941436	-0.3087931649643091	-0.05827580665301527	-0.3387185075779304	0.6559613615389215	0.6559613615388772	-0.1722188665064086	0.1743881933760483	0.02992912226462452	-0.04913442045789222	0.786231014323122	0.2672333206588423	0.4761723132869022	-2.360231629326523	0.0430669231798249	-0.5967723057301372	0.58211427420629	-1.71370033999176	-1.713700339991791	0.007256580042683613	-0.0001026301786536605	-0.2286049309881459	0.01789110484666455	-0.2510310461595411	0.02337753983135889	-0.0193885218518582	-0.1851334569125442	0.1269851410224069	0.04224314975513896	0.223832976070945	2.120757176087486	-21.57050890832938	6.295299112272832	-4.035467406103215	-606.1935412573854	-57.10488422386624	-30.17762246216159	0.5860218096480794	0.6434323626897314	-0.3317883020547198	-1.375494846753585	0.5210746614164347	-0.2534325522374229	1.671323137534075	-0.9245099602535002	-0.9245099602468968	-0.05355509383878525	0.02509574574123217	-0.07941462643844616	0.5018877317273513	1.055502064415589e-07	1.043928364371586e-06	-5.831875138127272e-07	8.773075757669084e-08	2.414999639520181e-07	6.359898922894025e-08	2.124294414086288e-07
1.52	-0.4489344729515447	-0.06687269788492332	0.7739844573557616	1.223412518850885	-0.3083359147131959	-0.06425470555971542	-0.3328141176141278	0.6387805349626602	0.6387805349626642	-0.172148466371066	0.1743874621033868	0.02763973959121991	-0.04892983612009576	0.7917124389501642	0.2735770307506319	0.4725711318239267	-2.372941537906806	0.04838755757345118	-0.598910919691747	0.5986978587334233	-1.722229140651516	-1.722229140651503	0.006801832278247275	-5.77703471486472e-05	-0.2292226176101397	0.02303197487919936	-0.2428429225591349	0.02255292725979901	-0.01929254285095863	-0.184098186961236	0.1273432170938626	0.04154497502629333	0.2175727625598938	2.456545228949435	-21.43513564327957	6.398278275271561	-4.0314827066015	-601.9688141289919	-57.48401588379771	-31.1163926019696	0.5036391657647	0.6244626389062166	-0.3887847323713214	-1.156414685629323	0.5529159561901501	-0.1640750227486869	1.65218702977947	-0.7802957803155769	-0.7802957803155769	-0.02320266583186626	-0.03274009286785028	-0.04119794553884722	0.536903880680592	5.244257796563984e-08	1.188162175182831e-06	-3.427654405144635e-07	1.40310365666293e-07	2.209778369399585e-07	1.058018564047378e-07	1.890496131445217e-07
1.53	-0.4409925791693812	-0.06410596509463483	0.7786898667168692	1.199627495481487	-0.3078254138791264	-0.07025242586450602	-0.3267461406464011	0.621521590120504	0.6215215901205092	-0.1720830943428407	0.1743870866327183	0.02534564842586303	-0.04867374905687308	0.7965522873085249	0.2797336466025579	0.4684196475787417	-2.383727675228517	0.05371458057293185	-0.6005527079458965	0.6148098933346067	-1.729309852452217	-1.729309852452131	0.006266974535326257	-1.798653068410891e-05	-0.2295449622879878	0.0281896602600891	-0.2344045916440375	0.0215135975111747	-0.01925411078314033	-0.1832359665484694	0.1279652974915448	0.04067731578516272	0.2110663607506052	2.875266434337661	-21.24274237114409	6.494526747179403	-4.048773119318343	-597.68437541115	-57.78899558895839	-32.03163439941104	0.4570662320841418	0.6059098433008507	-0.4419463127556108	-0.9893773216057333	0.522765404885565	-0.1519608093413991	1.577565453475297	-0.634501563644929	-0.6345015636341134	-0.06925715810857777	0.02236695931729604	-0.02014146466467598	0.5056687551555273	4.631857492132428e-08	1.259144608940727e-06	-3.336928372870732e-07	1.4952026252771e-07	2.329783328245741e-07	1.287549866616195e-07	1.928685002838501e-07
